<svg width="153" height="38" viewBox="0 0 153 38" fill="none" xmlns="http://www.w3.org/2000/svg">
<rect x="13.7898" y="1.14899" width="6.89488" height="6.89488" fill="#1AD3B2"/>
<rect x="20.6844" y="8.04413" width="6.89488" height="6.89488" fill="#1AD3B2"/>
<rect x="27.5796" y="14.9387" width="6.89488" height="6.89488" fill="#1AD3B2"/>
<rect x="20.6844" y="21.8334" width="6.89488" height="6.89488" fill="#1AD3B2"/>
<rect x="13.7898" y="28.7285" width="6.89488" height="6.89488" fill="#13126C"/>
<rect x="6.89465" y="21.8334" width="6.89488" height="6.89488" fill="#13126C"/>
<rect y="14.9387" width="6.89488" height="6.89488" fill="#13126C"/>
<rect x="6.89465" y="8.04413" width="6.89488" height="6.89488" fill="#13126C"/>
<path fill-rule="evenodd" clip-rule="evenodd" d="M131.828 15.2963V14.5344C131.047 14.4758 130.734 14.3977 130.734 13.7725V0H130.128L126.045 0.898633V1.4847L127.12 2.03169V13.7725C127.12 14.3977 126.807 14.4758 126.026 14.5344V15.2963H131.828ZM79.7351 15.4916C81.6496 15.4916 83.3883 15.0227 84.5213 14.2218L84.8534 10.3342H83.8767C83.0952 13.3036 81.845 14.4562 80.2235 14.4562C77.8207 14.4562 76.5704 11.8385 76.5704 8.26346C76.5704 4.96196 77.5862 2.36374 80.0282 2.36374C81.845 2.36374 82.8804 3.63355 83.3687 5.95827H84.326L84.2674 2.53956C83.1539 1.79721 81.6692 1.38696 79.911 1.38696C75.8476 1.38696 72.5265 4.21961 72.5265 8.81045C72.5265 12.9324 75.281 15.4916 79.7351 15.4916ZM47.8679 15.2963V14.4758C46.813 14.4172 46.266 14.2023 46.266 13.5577C46.266 13.3623 46.3246 13.1279 46.4223 12.8348L47.0865 11.0571H52.068L52.7713 12.8544C52.869 13.1474 52.9276 13.3818 52.9276 13.5772C52.9276 14.2414 52.3806 14.4368 51.4038 14.4758V15.2963H58.2998V14.4758C57.7333 14.3977 57.3426 14.2609 57.1472 13.753L52.2829 1.54332H48.2L48.8642 3.16477L44.8008 13.753C44.5859 14.2805 44.1952 14.3977 43.6677 14.4758V15.2963H47.8679ZM51.6381 10.0024H47.4771L49.5088 4.59106L51.6381 10.0024ZM71.5668 11.5847C71.5668 14.1048 69.6719 15.2964 66.0773 15.2964H58.7906V14.4759C60.0995 14.3392 60.2167 14.1829 60.2167 13.167V3.71187C60.2167 2.69602 60.0995 2.53974 58.7906 2.40299V1.5825H65.882C68.91 1.5825 70.6877 2.73509 70.6877 5.00121C70.6877 6.97429 68.91 7.9706 67.015 8.16596C69.6133 8.2441 71.5668 9.43577 71.5668 11.5847ZM64.534 7.69701H64.0456V2.50057H64.5145C66.0773 2.50057 67.0541 3.30152 67.0541 5.04018C67.0541 6.79838 66.1945 7.69701 64.534 7.69701ZM65.4131 14.3782H65.5694C66.9173 14.3782 67.8551 13.4795 67.8551 11.526C67.8551 9.74826 66.8783 8.75195 64.9052 8.75195H64.0456V13.0498C64.0456 14.1047 64.3973 14.3782 65.4131 14.3782ZM95.6804 14.476V15.2964H89.0188V14.476C90.3277 14.3392 90.4449 14.1829 90.4449 13.1671V3.71189C90.4449 2.69604 90.3277 2.53976 89.0188 2.40301V1.58252H95.6804V2.40301C94.3911 2.53976 94.2738 2.69604 94.2738 3.71189V7.7362H99.2359V3.71189C99.2359 2.69604 99.1187 2.53976 97.8098 2.40301V1.58252H104.471V2.40301C103.182 2.53976 103.065 2.69604 103.065 3.71189L103.066 13.3064C103.079 14.1978 103.243 14.3457 104.471 14.476V15.2964H97.8098V14.476C99.1187 14.3392 99.2359 14.1829 99.2359 13.1671V8.9474H94.2738L94.2748 13.3064C94.2877 14.1978 94.4525 14.3457 95.6804 14.476ZM110.197 15.4918C112.659 15.4918 114.163 14.0657 114.691 11.9168L114.319 11.6824C113.577 12.6592 112.659 13.1085 111.409 13.1085C109.631 13.1085 108.342 11.6629 108.381 9.33814H114.612V8.84975C114.612 6.36874 113.167 4.57148 110.334 4.57148C107.521 4.57148 105.118 6.79852 105.118 10.2758C105.118 13.5578 107.306 15.4918 110.197 15.4918ZM108.401 8.43935H111.526C111.526 6.54441 111.155 5.39181 110.1 5.39181C109.026 5.39181 108.498 6.62255 108.401 8.43935ZM123.269 15.4918C124.363 15.4918 125.203 15.0816 125.848 14.4369L125.711 13.9094C125.574 13.9681 125.32 14.0267 125.047 14.0267C124.578 14.0267 124.519 13.6164 124.519 13.1476V7.97065C124.519 5.43104 122.878 4.57148 120.143 4.57148C117.78 4.57148 115.943 5.39197 115.943 7.1697C115.943 7.87298 116.334 8.34183 116.9 8.53718L119.069 8.24415C118.971 7.7753 118.893 7.32598 118.893 6.87666C118.893 5.9585 119.186 5.33336 119.948 5.33336C120.71 5.33336 120.964 5.93896 120.964 6.83759V8.83021L117.858 9.9242C116.471 10.4126 115.279 11.1159 115.279 12.8155C115.279 14.4955 116.432 15.4332 118.073 15.4332C119.518 15.4332 120.456 14.6713 121.022 13.8508C121.315 14.8862 122.136 15.4918 123.269 15.4918ZM118.757 11.819C118.757 12.8153 119.128 13.5576 120.105 13.5576C120.417 13.5576 120.652 13.46 120.964 13.2842V9.67008L119.89 10.0803C119.206 10.3343 118.757 10.7055 118.757 11.819ZM139.645 13.5774C138.902 14.7886 137.808 15.4918 136.246 15.4918C134.448 15.4918 133.198 14.5932 133.198 12.288V5.82176H132.085V5.17709C133.647 4.59102 135.054 3.45797 136.07 2.11002H136.832V4.76684H139.117V5.82176H136.832V12.288C136.832 13.2257 137.203 13.636 137.945 13.636C138.453 13.636 138.883 13.4601 139.352 13.1476L139.645 13.5774ZM145.625 15.2963V14.5344C144.843 14.4758 144.589 14.3977 144.589 13.7725V7.13046C145.078 6.8765 145.625 6.70068 146.25 6.70068C147.266 6.70068 147.559 7.2086 147.559 8.06816V13.7725C147.559 14.3977 147.305 14.4758 146.523 14.5344V15.2963H152.267V14.5344C151.485 14.4758 151.173 14.3977 151.173 13.7725V7.77513C151.173 5.64576 150.098 4.57131 148.223 4.57131C146.445 4.57131 145.331 5.58715 144.589 6.52486V0H143.984L139.901 0.898633V1.4847L140.975 2.03169V13.7725C140.975 14.3977 140.662 14.4758 139.881 14.5344V15.2963H145.625ZM54.2754 29.4826C54.2754 32.491 51.8725 33.8781 48.9422 33.8781C46.9887 33.8781 45.2695 33.292 44.3514 32.5692L44.1365 29.17H45.1719C45.6602 31.358 46.9691 32.9404 48.9422 32.9404C50.3292 32.9404 51.2279 32.2762 51.2279 31.065C51.2279 29.7952 50.4074 29.2482 48.2389 28.5839C45.6407 27.8221 44.2146 26.5523 44.2146 24.1885C44.2146 21.473 46.2854 19.7734 49.1766 19.7734C50.9544 19.7734 52.4391 20.2423 53.3963 20.9456V23.915H52.5172C52.0679 21.9419 50.9934 20.6916 49.1766 20.6916C47.9654 20.6916 47.1645 21.3949 47.1645 22.5084C47.1645 23.7782 47.9459 24.3057 49.9581 24.9113C52.5563 25.7122 54.2754 26.7476 54.2754 29.4826ZM57.6575 38C59.025 38 59.7478 37.1014 60.4706 35.3823L64.9247 24.6963C65.1005 24.2666 65.2568 24.1298 65.921 23.9149V23.153H62.3655V23.9149C63.3814 24.0517 63.6549 24.1689 63.6549 24.5987C63.6549 24.7608 63.6051 24.8897 63.5207 25.1078L63.4986 25.1652L61.5646 30.1272L59.5134 25.1456C59.5007 25.1076 59.4885 25.0721 59.477 25.0385L59.477 25.0385C59.4177 24.8657 59.3766 24.7459 59.3766 24.5987C59.3766 24.1689 59.6306 24.0517 60.6659 23.9149V23.153H54.4146V23.9149C55.0983 24.1298 55.2155 24.2666 55.4109 24.6963L59.865 34.1711L59.5524 34.8548C59.2008 35.6753 58.6343 35.9879 57.5403 35.9879C57.0098 35.9879 56.6292 35.9129 56.2015 35.8287L56.2014 35.8286L56.2013 35.8286L56.2013 35.8286L56.2003 35.8284L56.1986 35.8281C56.139 35.8163 56.0785 35.8044 56.0165 35.7925V37.1795C56.29 37.6874 56.8956 38 57.6575 38ZM74.2064 30.3029C74.2064 32.5886 72.5068 33.8779 69.8695 33.8779C68.2481 33.8779 66.9978 33.4872 66.1578 32.8816L66.0406 30.2443H66.9392C67.3299 31.8462 68.3458 33.0574 69.8695 33.0574C70.7877 33.0574 71.5301 32.6081 71.5301 31.729C71.5301 30.7327 70.7682 30.4006 69.4398 29.9708C67.2322 29.2871 66.0406 28.3689 66.0406 26.3763C66.0406 24.1883 67.7206 22.9576 70.0649 22.9576C71.3933 22.9576 72.585 23.3092 73.425 23.8562V26.2005H72.585C72.3505 24.9111 71.491 23.7781 70.1235 23.7781C69.2835 23.7781 68.7169 24.2469 68.7169 24.9893C68.7169 25.8097 69.303 26.1418 70.5924 26.5912C72.9366 27.3726 74.2064 28.1735 74.2064 30.3029ZM78.8777 33.8779C80.4405 33.8779 81.5345 33.1746 82.2769 31.9634L81.9838 31.5336C81.515 31.8462 81.0852 32.022 80.5773 32.022C79.8349 32.022 79.4638 31.6117 79.4638 30.674V24.2078H81.7494V23.1529H79.4638V20.496H78.7019C77.686 21.844 76.2795 22.977 74.7166 23.5631V24.2078H75.8302V30.674C75.8302 32.9792 77.0804 33.8779 78.8777 33.8779ZM92.047 30.3029C91.5195 32.4518 90.0153 33.8779 87.5538 33.8779C84.6625 33.8779 82.4746 31.9439 82.4746 28.6619C82.4746 25.1846 84.8774 22.9576 87.6905 22.9576C90.5232 22.9576 91.9688 24.7548 91.9688 27.2358V27.7242H85.737C85.6979 30.0489 86.9873 31.4946 88.765 31.4946C90.0153 31.4946 90.9334 31.0453 91.6758 30.0685L92.047 30.3029ZM88.8821 26.8259H85.7564C85.8541 25.0091 86.3816 23.7783 87.456 23.7783C88.5109 23.7783 88.8821 24.9309 88.8821 26.8259ZM98.3396 32.9206V33.6825H92.6548V32.9206C93.4362 32.862 93.7488 32.7839 93.7488 32.1587V25.3018L92.6743 24.6376V24.0906L96.7572 22.9575H97.4214L97.3433 24.9501C98.0857 23.8757 99.1406 22.9575 100.879 22.9575C102.383 22.9575 103.321 23.5631 103.595 24.9892C104.298 23.9343 105.49 22.9575 107.17 22.9575C108.986 22.9575 110.002 24.0124 110.002 26.0637V32.1587C110.002 32.7839 110.315 32.862 111.077 32.9206V33.6825H105.411V32.9206C106.193 32.862 106.388 32.7839 106.388 32.1587V26.3958C106.388 25.5557 106.115 25.0674 105.216 25.0674C104.63 25.0674 104.161 25.2822 103.673 25.5167V32.1587C103.673 32.7839 103.868 32.862 104.65 32.9206V33.6825H99.082V32.9206C99.8634 32.862 100.059 32.7839 100.059 32.1587V26.3958C100.059 25.5557 99.7852 25.0674 98.9061 25.0674C98.3005 25.0674 97.8317 25.2627 97.3433 25.5167V32.1587C97.3433 32.7839 97.5582 32.862 98.3396 32.9206Z" fill="#13126C"/>
</svg>
